PathFileType	4	(X/Y/Z)	C:/Users/beibeiliu/ov580/test_trc/User1\sequence.8_training_dense_right.trc
DataRate	CameraRate	NumFrames	NumMarkers	Units	OrigDataRate	OrigDataStartFrame	OrigNumFrames
120	120	14	19	mm	120	217	289
Frame#	Time	ThumbCMC			ThumbMCP			ThumbIP			ThumbTip			IndexMCP			IndexPIP			IndexTip			MiddleMCP			MiddlePIP			MiddleTip			RingMCP			RingPIP			RingTip			PinkyMCP			PinkyPIP			PinkyTip			BackHand1			BackHand2			BackHand3	
		X0	Y0	Z0	X1	Y1	Z1	X2	Y2	Z2	X3	Y3	Z3	X4	Y4	Z4	X5	Y5	Z5	X6	Y6	Z6	X7	Y7	Z7	X8	Y8	Z8	X9	Y9	Z9	X10	Y10	Z10	X11	Y11	Z11	X12	Y12	Z12	X13	Y13	Z13	X14	Y14	Z14	X15	Y15	Z15	X16	Y16	Z16	X17	Y17	Z17	X18	Y18	Z18	
216	1.8	226.959	101.499	16.213	230.548	107.939	-9.63757	246.288	114.241	-31.6922	258.358	128.819	-42.0453	223.664	64.4924	-60.4928	191.951	72.3385	-60.7702	195.82	79.2586	-24.7934	212.882	42.5072	-56.2336	179.433	59.746	-53.5197	187.648	73.1175	-19.4989	194.39	29.3566	-48.9019	170.263	49.4044	-42.5027	184.069	58.9148	-10.5341	184.755	15.7931	-31.2162	170.034	40.5987	-29.3806	183.113	45.6246	0.275455	225.07	26.5861	8.98842	218.083	35.4273	43.0268	235.566	61.4187	21.2132	
217	1.80833	219.764	109.215	17.0739	223.025	120.64	-8.02053	237.732	130.615	-31.0551	241.638	142.07	-41.9535	225.024	75.8405	-61.8596	191.257	79.0047	-62.0089	194.027	85.7324	-25.5715	213.209	48.2662	-58.6396	181.572	60.2521	-54.8148	188.491	73.2556	-16.6375	201.124	33.4945	-49.0834	172.916	49.0337	-40.6342	184.091	61.8891	-11.4594	194.637	17.5459	-31.3953	173.822	37.9768	-31.0862	187.142	52.051	-4.999	228.841	35.6118	10.5333	224.688	43.5298	41.942	237.937	72.2309	18.6681	
218	1.81667	211.544	116.022	17.6644	211.74	127.54	-10.0077	222.42	141.611	-31.8335	223.914	156.591	-39.8974	221.985	84.6127	-61.4164	188.744	81.5961	-61.7686	189.293	87.4396	-24.5966	218.129	58.5469	-58.8914	181.825	61.4811	-54.1829	185.932	75.4774	-16.1744	206.847	39.0658	-48.7731	176.988	46.4336	-42.3623	184.368	61.214	-11.3415	207.244	24.5193	-31.7626	178.903	35.3432	-32.2607	192.869	53.9761	-4.04652	237.942	48.0885	11.9133	230.399	57.1674	43.6245	237.945	82.5466	18.6114	
219	1.825	199.662	120.099	18.4279	195.461	134.136	-8.22987	202.815	148.14	-30.9158	199.872	162.799	-40.4475	217.596	90.3794	-59.3727	184.797	80.5649	-59.3822	181.72	88.2659	-26.4945	217.626	65.5768	-59.607	183.962	62.638	-54.9386	182.362	76.8586	-17.8746	212.392	43.4348	-47.9268	181.643	49.6405	-41.0848	186.28	64.4343	-9.93457	213.867	31.6347	-33.928	187.924	38.7584	-32.245	192.407	55.4243	-3.82307	240.983	59.9737	9.41208	232.243	68.2511	42.1668	231.254	97.9576	19.8819	
220	1.83333	189.974	125.824	19.0736	183.366	132.546	-9.3549	181.643	149.304	-29.291	178.303	164.725	-41.7071	207.665	100.244	-62.343	178.579	83.7388	-59.2013	175.398	91.9409	-25.0725	216.758	71.8861	-59.7974	181.412	66.2567	-52.8582	183.277	74.9728	-16.0787	219.875	54.3263	-47.0649	185.478	48.6057	-39.5509	188.194	65.1173	-9.92354	221.026	39.9128	-33.0399	190.767	39.281	-28.0031	194.727	59.5889	-4.1274	243.606	71.0986	7.83228	232.028	78.2743	43.2447	228.242	106.779	14.2538	
221	1.84167	181.634	123.903	17.5327	168.55	130.418	-6.36014	165.894	143.088	-26.8247	158.09	159.659	-40.3629	202.388	101.401	-62.2576	179.029	80.8818	-59.8989	170.959	89.3421	-25.2791	216.113	79.4065	-58.6492	180.894	67.5571	-53.0789	181.95	76.2924	-16.2915	221.279	59.9404	-47.2374	188.13	49.7679	-37.965	188.907	66.3635	-10.4726	228.249	42.3855	-33.2429	198.883	42.46	-31.0907	197.333	56.6022	-1.66221	243.63	83.8902	7.81535	232.169	87.1746	41.5445	222.81	114.247	17.3421	
222	1.85	174.535	120.962	16.5005	160.877	122.575	-4.73459	151.584	140.278	-27.803	139.02	149.033	-35.8507	194.069	103.194	-62.0654	175.06	77.5723	-56.7602	169.866	84.7246	-25.0347	211.85	85.861	-59.679	181.064	65.0743	-52.7408	179.602	74.4239	-16.8282	217.895	64.6455	-51.4194	192.081	50.2804	-39.0495	193.793	66.3986	-7.3761	228.345	48.4955	-37.3212	201.221	44.5419	-27.589	200.492	62.1775	-3.52507	243.237	91.0954	4.51206	233.393	93.3139	36.3539	214.533	119.969	12.676	
223	1.85833	169.314	114.321	17.7715	151.694	117.267	-7.29488	140.559	125.065	-23.2697	122.019	139.122	-36.3498	186.259	103.998	-61.0068	169.185	76.0548	-58.8078	169.974	81.9444	-21.2762	204.586	85.984	-61.9797	182.784	60.7057	-49.6607	181.547	71.0211	-15.7065	217.544	65.8797	-52.6545	192.685	51.1573	-37.1689	195.972	66.3663	-5.85337	233.07	59.3098	-35.4595	204.816	47.1164	-26.1104	208.565	64.0633	1.438	237.553	102.077	1.78452	232.137	102.118	35.3862	207.832	123.299	15.5465	
224	1.86667	161.173	111.22	19.4504	146.417	106.983	-6.37901	130.768	114.097	-23.0442	110.708	120.584	-32.0666	180.37	99.763	-61.4236	169.731	70.598	-56.551	166.94	77.4409	-20.2661	200.63	87.7405	-62.2351	185.059	56.6046	-48.4922	181.26	68.8106	-13.2947	219.813	72.5748	-50.7267	196.586	48.5259	-35.9141	195.828	67.2803	-6.91029	231.695	62.2102	-38.5	208.049	49.075	-26.4933	207.576	65.6765	-0.366881	234.441	106.191	-2.85153	228.367	104.128	33.3198	202.096	123.298	14.5817	
225	1.875	156.499	105.494	19.1637	139.3	97.1796	-0.738815	122.372	103.83	-20.3505	102.657	105.98	-29.369	177.305	96.7572	-61.7187	165.641	65.2092	-56.1577	168.758	71.4229	-21.1116	197.293	84.9169	-61.4911	181.904	56.1107	-49.5162	181.094	64.493	-13.3108	215.905	70.5056	-53.1351	197.087	50.3927	-38.0214	199.767	62.2486	-5.88704	228.572	66.1724	-40.4279	213.837	46.331	-24.4917	210.169	70.5631	2.05178	225.36	110.412	-4.91003	226.787	107.58	32.5224	193.537	123.34	15.339	
226	1.88333	155.564	98.6591	23.553	132.988	91.2837	-1.29909	116.453	92.4865	-15.8834	95.0968	94.0673	-25.3451	169.754	95.463	-59.1119	169.596	60.982	-55.4861	168.648	66.2465	-21.3728	196.481	81.1179	-61.5616	181.946	52.5888	-48.3184	182.652	62.895	-11.4532	212.161	71.0971	-53.1281	200.381	48.0985	-37.7298	196.929	61.502	-7.32869	230.976	70.2155	-38.5106	212.905	50.0806	-25.906	207.002	67.852	0.855619	225.055	113.612	-5.31099	219.205	110.285	33.8529	187.261	119.959	13.51	
227	1.89167	153.433	95.041	23.9034	130.195	83.7081	3.28437	114.139	83.8648	-16.9144	96.4626	81.3165	-23.6573	169.735	87.8502	-61.3578	167.322	56.0038	-52.1167	166.537	64.8908	-19.8276	193.914	80.0372	-61.6126	182.645	50.0198	-48.343	182.245	59.7296	-11.3509	210.31	70.8803	-52.9558	198.343	46.3238	-36.5024	198.847	61.9313	-3.571	228.092	69.0015	-39.7604	212.481	49.6199	-23.2936	209.669	68.3099	1.81589	219.485	113.407	-5.12544	216.631	111.708	34.0033	186.349	118.39	16.0322	
228	1.9	145.918	92.4622	20.8051	128.338	78.89	6.10542	112.673	76.9689	-15.6832	91.7613	72.8004	-23.3843	167.002	85.8534	-58.6107	167.319	53.7519	-55.1262	162.229	61.2413	-16.9425	192.455	80.6263	-59.2713	183.839	47.8261	-48.4455	178.512	57.3292	-9.98822	208.233	73.5478	-51.402	200.77	43.4349	-33.5211	196.553	59.8774	-3.0296	230.781	68.8779	-38.6332	214.465	47.3449	-27.3019	204.52	67.754	0.0584857	214.869	113.316	-2.84406	213.173	111.788	32.4155	178.298	117.776	12.0101	
229	1.90833	145.593	88.8467	24.5138	129.681	73.5208	8.25953	109.924	70.8335	-11.0819	92.5225	64.2881	-18.492	163.272	82.8251	-58.7552	165.963	50.4166	-53.8463	165.34	59.0889	-14.7365	185.077	79.244	-58.6643	182.422	43.659	-44.6229	178.064	57.0054	-8.95132	205.026	68.031	-53.0569	198.273	41.4621	-33.0969	197.062	53.7095	-4.69754	226.985	64.849	-40.2972	210.044	48.6992	-24.1699	205.638	67.2595	0.83828	214.709	111.344	-6.71915	211.558	110.73	34.4912	176.485	115.84	14.212	
